<?xml version="1.0" standalone="no"?>
<!DOCTYPE svg PUBLIC "-//W3C//DTD SVG 20010904//EN"
 "http://www.w3.org/TR/2001/REC-SVG-20010904/DTD/svg10.dtd">
<svg version="1.0" xmlns="http://www.w3.org/2000/svg"
 width="97.000000pt" height="97.000000pt" viewBox="0 0 97.000000 97.000000"
 preserveAspectRatio="xMidYMid meet">
<metadata>
Created by potrace 1.14, written by Peter Selinger 2001-2017
</metadata>
<g transform="translate(0.000000,97.000000) scale(0.100000,-0.100000)"
fill="#000000" stroke="none">
<path d="M450 803 c-39 -16 -89 -113 -59 -113 5 0 9 -6 9 -13 0 -7 14 -26 30
-42 37 -35 38 -47 4 -39 -36 9 -80 -35 -89 -90 -4 -22 -12 -47 -17 -53 -6 -7
-8 -20 -4 -28 3 -8 1 -15 -4 -15 -6 0 -10 -6 -10 -13 0 -31 -35 -47 -103 -47
-66 0 -107 -17 -107 -45 0 -15 63 -75 78 -75 7 0 12 -4 12 -9 0 -6 9 -8 20 -6
11 2 20 0 20 -6 0 -5 18 -9 40 -9 22 0 40 -4 40 -9 0 -4 27 -8 60 -7 33 0 60
4 60 8 0 11 98 10 105 -1 7 -12 115 -11 115 1 0 4 18 8 39 8 22 0 42 4 46 10
3 5 12 7 20 3 8 -3 15 0 15 6 0 6 5 11 11 11 6 0 29 15 50 34 l38 35 -20 25
c-19 24 -27 26 -93 26 -79 0 -99 12 -112 67 -4 16 -9 33 -13 38 -3 6 -6 19 -7
30 -3 50 -28 90 -72 114 -13 7 -22 7 -30 -1 -7 -7 -15 -9 -18 -5 -4 4 9 23 29
43 20 20 34 41 31 45 -3 5 -1 9 4 9 8 0 9 20 3 52 0 4 -12 18 -25 32 -24 27
-69 40 -96 29z m63 -57 c24 -26 21 -48 -8 -76 l-24 -23 -25 24 c-30 28 -32 42
-9 73 21 27 42 28 66 2z m61 -261 c-2 -13 3 -28 11 -35 8 -7 12 -16 9 -22 -3
-5 0 -15 6 -23 6 -8 9 -19 5 -24 -3 -6 3 -16 14 -23 15 -9 17 -15 9 -25 -6 -7
-17 -13 -24 -13 -8 0 -14 -5 -14 -11 0 -6 -5 -9 -12 -7 -15 5 -21 48 -7 48 18
0 -3 128 -29 177 -19 36 -13 40 12 9 15 -17 23 -38 20 -51z m-78 40 c3 -14 10
-25 14 -25 9 0 13 -32 13 -118 1 -51 -3 -66 -21 -84 -20 -21 -22 -21 -41 -4
-11 10 -17 24 -15 31 3 7 1 16 -5 20 -12 7 -15 88 -3 99 4 4 8 15 8 24 3 30
16 62 26 62 5 0 6 5 3 10 -3 6 -2 10 4 10 6 0 13 -11 17 -25z m-112 -130 c-2
-25 1 -45 6 -45 6 0 10 -10 10 -23 0 -14 -6 -24 -15 -24 -8 0 -15 4 -15 9 0 4
-6 8 -14 8 -23 0 -29 20 -13 38 8 9 12 22 10 29 -2 6 1 14 6 18 6 3 11 15 11
26 0 11 4 18 9 15 4 -3 7 -26 5 -51z m-164 -89 c0 5 4 3 9 -5 5 -8 26 -15 48
-16 21 -1 56 -10 78 -20 22 -10 43 -18 48 -17 4 1 7 -3 7 -9 0 -10 -77 -8
-145 4 -30 5 -105 46 -105 57 0 5 7 7 15 4 8 -4 15 -1 15 6 0 10 3 10 15 0 8
-7 15 -9 15 -4z m560 -3 c0 5 5 5 10 2 8 -5 7 -11 -1 -21 -6 -7 -15 -11 -20
-8 -5 3 -9 0 -9 -5 0 -6 -7 -11 -15 -11 -8 0 -15 -4 -15 -9 0 -5 -12 -8 -27
-6 -16 1 -31 -1 -34 -7 -3 -5 -32 -8 -65 -6 l-59 3 59 28 c32 15 72 26 89 25
17 -1 32 3 34 9 3 7 11 9 19 6 8 -3 14 1 14 8 0 11 3 11 10 -1 5 -8 10 -11 10
-7z"/>
</g>
</svg>
